# Blender v2.74 (sub 0) OBJ File: ''
# www.blender.org
mtllib ma-table.mtl
o Box
v 1.058100 1.025000 0.410300
v 1.058100 1.025000 0.343698
v 1.058100 1.025000 -0.516082
v 1.058100 1.025000 -0.589700
v 1.058100 0.940000 0.410300
v 1.058100 0.940000 0.343698
v 1.058100 0.940000 -0.516082
v 1.058100 0.940000 -0.589700
v -0.941900 1.025000 -0.589700
v -0.941900 1.025000 -0.516082
v -0.941900 1.025000 0.343698
v -0.941900 1.025000 0.410300
v -0.941900 0.940000 -0.589700
v -0.941900 0.940000 -0.516082
v -0.941900 0.940000 0.343698
v -0.941900 0.940000 0.410300
v -0.838220 1.025000 -0.588409
v 0.949401 1.025000 -0.589700
v -0.840795 1.025000 -0.515651
v 0.949401 1.025000 -0.516082
v -0.840795 1.025000 0.343268
v 0.949401 1.025000 0.343698
v -0.838220 1.025000 0.409009
v 0.949401 1.025000 0.410300
v -0.838220 0.940000 0.409009
v 0.949401 0.940000 0.410300
v -0.840795 0.940000 0.343068
v 0.949401 0.940000 0.343498
v -0.840795 0.940000 -0.515651
v 0.949401 0.940000 -0.516082
v -0.838220 0.940000 -0.588409
v 0.949401 0.940000 -0.589700
v -0.941900 0.014492 0.343698
v -0.941900 0.014492 0.410300
v -0.840795 0.014492 0.343068
v -0.838220 0.014492 0.409009
v 0.949401 0.014492 0.343498
v 0.949401 0.014492 0.410300
v 1.058100 0.014492 0.343698
v 1.058100 0.014492 0.410300
v -0.941900 0.014492 -0.589700
v -0.941900 0.014492 -0.516082
v -0.838220 0.014492 -0.588409
v -0.840795 0.014492 -0.515651
v 0.949401 0.014492 -0.589700
v 0.949401 0.014492 -0.516082
v 1.058100 0.014492 -0.589700
v 1.058100 0.014492 -0.516082
vt 0.000000 1.000000
vt 0.000000 0.000000
vt 0.333333 0.000000
vt 0.333333 1.000000
vt 0.666667 0.000000
vt 0.666667 1.000000
vt 1.000000 0.000000
vt 1.000000 1.000000
vt 0.000000 0.666667
vt 0.333333 0.666667
vt 0.666667 0.666667
vt 1.000000 0.666667
vt 0.000000 0.333333
vt 0.333333 0.333333
vt 0.666667 0.333333
vt 1.000000 0.333333
vn 1.000000 0.000000 0.000000
vn -1.000000 0.000000 0.000000
vn 0.000000 1.000000 0.000000
vn 0.000000 -1.000000 0.000000
vn 0.012500 0.000000 0.999900
vn -0.000700 0.000000 1.000000
vn -0.000200 0.000000 1.000000
vn -0.000400 0.000000 1.000000
vn 0.000000 0.000000 1.000000
vn 0.000000 0.000000 -1.000000
vn -0.000200 0.000000 -1.000000
vn -0.000400 0.000000 -1.000000
vn -0.000700 0.000000 -1.000000
vn 0.012500 0.000000 -0.999900
vn -0.006200 0.000000 -1.000000
vn 0.999200 0.000000 -0.039000
vn 0.001800 0.000000 -1.000000
vn 0.999400 0.000000 0.035400
vn -0.004300 0.000000 1.000000
usemtl 5b3609
s 1
f 1/1/1 5/2/1 6/3/1 2/4/1
f 2/4/1 6/3/1 7/5/1 3/6/1
f 3/6/1 7/5/1 8/7/1 4/8/1
f 9/1/2 13/2/2 14/3/2 10/4/2
f 10/4/2 14/3/2 15/5/2 11/6/2
f 11/6/2 15/5/2 16/7/2 12/8/2
f 9/1/3 10/9/3 19/10/3 17/4/3
f 17/4/3 19/10/3 20/11/3 18/6/3
f 18/6/3 20/11/3 3/12/3 4/8/3
f 10/9/3 11/13/3 21/14/3 19/10/3
f 19/10/3 21/14/3 22/15/3 20/11/3
f 20/11/3 22/15/3 2/16/3 3/12/3
f 11/13/3 12/2/3 23/3/3 21/14/3
f 21/14/3 23/3/3 24/5/3 22/15/3
f 22/15/3 24/5/3 1/7/3 2/16/3
f 34/1/4 33/9/4 35/10/4 36/4/4
f 25/4/4 27/10/4 28/11/4 26/6/4
f 38/6/4 37/11/4 39/12/4 40/8/4
f 15/9/4 14/13/4 29/14/4 27/10/4
f 27/10/4 29/14/4 30/15/4 28/11/4
f 28/11/4 30/15/4 7/16/4 6/12/4
f 42/13/4 41/2/4 43/3/4 44/14/4
f 29/14/4 31/3/4 32/5/4 30/15/4
f 46/15/4 45/5/4 47/7/4 48/16/4
f 12/1/5 16/2/5 25/3/5 23/4/5
f 23/4/6 25/3/6 26/5/7 24/6/8
f 24/6/8 26/5/7 5/7/9 1/8/9
f 4/1/10 8/2/10 32/3/11 18/4/12
f 18/4/12 32/3/11 31/5/13 17/6/13
f 17/6/14 31/5/14 13/7/14 9/8/14
f 16/2/2 15/2/2 33/2/2 34/2/2
f 15/2/15 27/2/15 35/2/15 33/2/15
f 27/2/16 25/2/16 36/2/16 35/2/16
f 25/2/5 16/2/5 34/2/5 36/2/5
f 26/2/2 28/2/2 37/2/2 38/2/2
f 28/2/17 6/2/17 39/2/17 37/2/17
f 6/2/1 5/2/1 40/2/1 39/2/1
f 5/2/9 26/2/7 38/2/9 40/2/9
f 14/2/2 13/2/2 41/2/2 42/2/2
f 13/2/14 31/2/14 43/2/14 41/2/14
f 31/2/18 29/2/18 44/2/18 43/2/18
f 29/2/19 14/2/19 42/2/19 44/2/19
f 30/2/2 32/2/2 45/2/2 46/2/2
f 32/2/11 8/2/10 47/2/10 45/2/10
f 8/2/1 7/2/1 48/2/1 47/2/1
f 7/2/9 30/2/9 46/2/9 48/2/9
